<?xml version="1.0" encoding="UTF-8"?>
<svg width="200px" height="200px" viewBox="0 0 200 200" version="1.1" xmlns="http://www.w3.org/2000/svg" xmlns:xlink="http://www.w3.org/1999/xlink" xmlns:sketch="http://www.bohemiancoding.com/sketch/ns">
    <!-- Generator: Sketch 3.4.2 (15855) - http://www.bohemiancoding.com/sketch -->
    <title>Group</title>
    <desc>Created with Sketch.</desc>
    <defs></defs>
    <g id="Page-1" stroke="none" stroke-width="1" fill="none" fill-rule="evenodd" sketch:type="MSPage">
        <g id="Group" sketch:type="MSLayerGroup" fill="#4176FA">
            <rect id="Rectangle-1" sketch:type="MSShapeGroup" x="0" y="0" width="40" height="40"></rect>
            <rect id="Rectangle-1-Copy-3" sketch:type="MSShapeGroup" x="20" y="40" width="40" height="40"></rect>
            <rect id="Rectangle-1-Copy-5" sketch:type="MSShapeGroup" x="80" y="40" width="40" height="40"></rect>
            <rect id="Rectangle-1-Copy-7" sketch:type="MSShapeGroup" x="140" y="40" width="40" height="40"></rect>
            <rect id="Rectangle-1-Copy-4" sketch:type="MSShapeGroup" x="40" y="80" width="40" height="40"></rect>
            <rect id="Rectangle-1-Copy-12" sketch:type="MSShapeGroup" x="0" y="80" width="20" height="40"></rect>
            <rect id="Rectangle-1-Copy-10" sketch:type="MSShapeGroup" x="20" y="120" width="40" height="40"></rect>
            <rect id="Rectangle-1-Copy-13" sketch:type="MSShapeGroup" x="80" y="120" width="40" height="40"></rect>
            <rect id="Rectangle-1-Copy-17" sketch:type="MSShapeGroup" x="60" y="160" width="40" height="40"></rect>
            <rect id="Rectangle-1-Copy-16" sketch:type="MSShapeGroup" x="120" y="160" width="40" height="40"></rect>
            <rect id="Rectangle-1-Copy-14" sketch:type="MSShapeGroup" x="140" y="120" width="40" height="40"></rect>
            <rect id="Rectangle-1-Copy-15" sketch:type="MSShapeGroup" x="180" y="160" width="20" height="40"></rect>
            <rect id="Rectangle-1-Copy-11" sketch:type="MSShapeGroup" x="0" y="160" width="40" height="40"></rect>
            <rect id="Rectangle-1-Copy-6" sketch:type="MSShapeGroup" x="100" y="80" width="40" height="40"></rect>
            <rect id="Rectangle-1-Copy-8" sketch:type="MSShapeGroup" x="160" y="80" width="40" height="40"></rect>
            <rect id="Rectangle-1-Copy" sketch:type="MSShapeGroup" x="60" y="0" width="40" height="40"></rect>
            <rect id="Rectangle-1-Copy-2" sketch:type="MSShapeGroup" x="120" y="0" width="40" height="40"></rect>
            <rect id="Rectangle-1-Copy-9" sketch:type="MSShapeGroup" x="180" y="0" width="20" height="40"></rect>
        </g>
    </g>
</svg>